<?xml version="1.0" encoding="utf-8"?>
<!-- Generator: Adobe Illustrator 21.0.0, SVG Export Plug-In . SVG Version: 6.00 Build 0)  -->
<svg version="1.1" id="Layer_1" xmlns="http://www.w3.org/2000/svg" xmlns:xlink="http://www.w3.org/1999/xlink" x="0px" y="0px"
	 viewBox="0 0 54.3 54" style="enable-background:new 0 0 54.3 54;" xml:space="preserve">
<style type="text/css">
	.st0{fill:#EF4153;}
</style>
<g>
	<path d="M20.1,13.8v5H13v20.9H7.7V18.8H0.6v-5H20.1z"/>
	<path d="M46.2,39.7h-6.6l-7.4-11.1l-3.9,4.3v6.8H23V13.8h5.3v12.3l10.5-12.3h6.9l-9.8,10.7L46.2,39.7z"/>
	<path class="st0" d="M52.8,39c-0.7,0.6-1.5,1-2.5,1c-1,0-1.9-0.3-2.5-1c-0.7-0.6-1-1.5-1-2.5c0-1,0.3-1.8,1-2.5
		c0.7-0.7,1.5-1,2.5-1c1,0,1.8,0.3,2.5,1c0.7,0.7,1,1.5,1,2.5C53.7,37.5,53.4,38.3,52.8,39z"/>
</g>
</svg>
