<?xml version="1.0" encoding="utf-8"?>
<!-- Generator: Adobe Illustrator 21.0.0, SVG Export Plug-In . SVG Version: 6.00 Build 0)  -->
<svg version="1.1" id="Layer_1" xmlns="http://www.w3.org/2000/svg" xmlns:xlink="http://www.w3.org/1999/xlink" x="0px" y="0px"
	 viewBox="0 0 200 54" style="enable-background:new 0 0 200 54;" xml:space="preserve">
<style type="text/css">
	.st0{fill:#231F20;}
	.st1{fill:url(#SVGID_1_);}
	.st2{opacity:0.5;}
	.st3{fill:#FFFFFF;}
	.st4{opacity:0.7;}
</style>
<g>
	<path class="st0" d="M73.6,42.6c-1.4,0-2.6-0.2-3.6-0.5c-1-0.3-1.7-0.7-2.3-1.3c-0.6-0.5-1-1.2-1.2-2c-0.2-0.8-0.3-1.7-0.3-2.8
		V11.8L71,11v24.1c0,0.6,0,1.1,0.1,1.5c0.1,0.4,0.3,0.7,0.5,1c0.2,0.3,0.6,0.5,1,0.6c0.4,0.1,0.9,0.3,1.6,0.3L73.6,42.6z"/>
	<path class="st0" d="M85.2,20.7c1.6,0,3,0.2,4.1,0.6c1.1,0.4,2,1,2.6,1.7c0.7,0.7,1.1,1.6,1.4,2.6c0.3,1,0.4,2.2,0.4,3.4v12.7
		c-0.8,0.2-1.9,0.4-3.4,0.6c-1.5,0.2-3.2,0.3-5.1,0.3c-1.3,0-2.4-0.1-3.5-0.4c-1-0.2-1.9-0.6-2.7-1.2c-0.7-0.5-1.3-1.2-1.7-2.1
		c-0.4-0.9-0.6-1.9-0.6-3.2c0-1.2,0.2-2.2,0.7-3.1c0.5-0.8,1.1-1.5,1.9-2c0.8-0.5,1.7-0.9,2.8-1.1c1.1-0.2,2.2-0.3,3.3-0.3
		c0.5,0,1.1,0,1.7,0.1c0.6,0.1,1.2,0.2,1.9,0.3V29c0-0.6-0.1-1.1-0.2-1.6c-0.1-0.5-0.4-1-0.7-1.3c-0.3-0.4-0.8-0.7-1.3-0.9
		s-1.2-0.3-2.1-0.3c-1.1,0-2.2,0.1-3.1,0.2c-0.9,0.2-1.7,0.3-2.3,0.6l-0.6-3.9c0.6-0.2,1.5-0.4,2.7-0.6S83.8,20.7,85.2,20.7z
		 M85.6,38.8c1.5,0,2.6-0.1,3.4-0.2v-5.4c-0.3-0.1-0.7-0.2-1.2-0.2c-0.5-0.1-1.1-0.1-1.7-0.1c-0.5,0-1.1,0-1.6,0.1
		c-0.5,0.1-1,0.2-1.5,0.4c-0.4,0.2-0.8,0.5-1.1,0.9c-0.3,0.4-0.4,0.9-0.4,1.5c0,1.2,0.4,1.9,1.1,2.4S84.3,38.8,85.6,38.8z"/>
	<path class="st0" d="M104.5,42.2c-1.3-2.8-2.7-5.9-4.1-9.5c-1.4-3.6-2.7-7.4-3.9-11.5h5.2c0.3,1.2,0.6,2.4,1,3.8
		c0.4,1.4,0.8,2.7,1.3,4.1c0.4,1.4,0.9,2.7,1.4,3.9c0.5,1.3,0.9,2.4,1.3,3.4c0.4-1,0.8-2.2,1.3-3.4c0.5-1.3,0.9-2.6,1.4-3.9
		c0.4-1.4,0.9-2.7,1.3-4.1c0.4-1.4,0.8-2.6,1.1-3.8h5c-1.2,4.1-2.4,7.9-3.9,11.5c-1.4,3.6-2.8,6.7-4.1,9.5H104.5z"/>
	<path class="st0" d="M127.3,20.7c1.6,0,3,0.2,4.1,0.6c1.1,0.4,2,1,2.6,1.7s1.1,1.6,1.4,2.6c0.3,1,0.4,2.2,0.4,3.4v12.7
		c-0.8,0.2-1.9,0.4-3.4,0.6c-1.5,0.2-3.2,0.3-5.1,0.3c-1.3,0-2.4-0.1-3.5-0.4c-1-0.2-1.9-0.6-2.7-1.2c-0.7-0.5-1.3-1.2-1.7-2.1
		c-0.4-0.9-0.6-1.9-0.6-3.2c0-1.2,0.2-2.2,0.7-3.1c0.5-0.8,1.1-1.5,1.9-2c0.8-0.5,1.7-0.9,2.8-1.1c1.1-0.2,2.2-0.3,3.3-0.3
		c0.5,0,1.1,0,1.7,0.1c0.6,0.1,1.2,0.2,1.9,0.3V29c0-0.6-0.1-1.1-0.2-1.6c-0.1-0.5-0.4-1-0.7-1.3c-0.3-0.4-0.8-0.7-1.3-0.9
		s-1.2-0.3-2.1-0.3c-1.1,0-2.2,0.1-3.1,0.2c-0.9,0.2-1.7,0.3-2.3,0.6l-0.6-3.9c0.6-0.2,1.5-0.4,2.7-0.6S125.9,20.7,127.3,20.7z
		 M127.7,38.8c1.5,0,2.6-0.1,3.4-0.2v-5.4c-0.3-0.1-0.7-0.2-1.2-0.2c-0.5-0.1-1.1-0.1-1.7-0.1c-0.5,0-1.1,0-1.6,0.1
		c-0.5,0.1-1,0.2-1.5,0.4c-0.4,0.2-0.8,0.5-1.1,0.9c-0.3,0.4-0.4,0.9-0.4,1.5c0,1.2,0.4,1.9,1.1,2.4
		C125.4,38.6,126.4,38.8,127.7,38.8z"/>
	<path class="st0" d="M149,42.6c-1.4,0-2.6-0.2-3.6-0.5c-1-0.3-1.7-0.7-2.3-1.3c-0.6-0.5-1-1.2-1.2-2c-0.2-0.8-0.3-1.7-0.3-2.8V11.8
		l4.9-0.8v24.1c0,0.6,0,1.1,0.1,1.5c0.1,0.4,0.3,0.7,0.5,1c0.2,0.3,0.6,0.5,1,0.6c0.4,0.1,0.9,0.3,1.6,0.3L149,42.6z"/>
	<path class="st0" d="M159.1,15c0,0.9-0.3,1.6-0.9,2.2c-0.6,0.5-1.3,0.8-2.1,0.8c-0.8,0-1.5-0.3-2.1-0.8c-0.6-0.5-0.9-1.3-0.9-2.2
		c0-0.9,0.3-1.7,0.9-2.2c0.6-0.5,1.3-0.8,2.1-0.8c0.8,0,1.5,0.3,2.1,0.8C158.8,13.4,159.1,14.1,159.1,15z M158.6,42.2h-4.9v-21h4.9
		V42.2z"/>
	<path class="st0" d="M164.5,15.7l4.9-0.8v6.4h7.5v4.1h-7.5v8.6c0,1.7,0.3,2.9,0.8,3.6c0.5,0.7,1.4,1.1,2.7,1.1
		c0.9,0,1.7-0.1,2.4-0.3c0.7-0.2,1.2-0.4,1.6-0.5l0.8,3.9c-0.6,0.2-1.3,0.5-2.2,0.7c-0.9,0.3-2,0.4-3.2,0.4c-1.5,0-2.8-0.2-3.8-0.6
		c-1-0.4-1.8-1-2.4-1.7c-0.6-0.8-1-1.7-1.2-2.8c-0.2-1.1-0.4-2.3-0.4-3.7V15.7z"/>
	<path class="st0" d="M180,31.8c0-1.8,0.3-3.5,0.8-4.9c0.5-1.4,1.3-2.6,2.2-3.5c0.9-0.9,2-1.6,3.1-2.1c1.2-0.5,2.4-0.7,3.6-0.7
		c2.9,0,5.2,0.9,6.8,2.7c1.6,1.8,2.4,4.5,2.4,8c0,0.3,0,0.6,0,0.9c0,0.3,0,0.6-0.1,0.9h-13.9c0.1,1.7,0.7,3,1.8,3.9
		c1.1,0.9,2.6,1.4,4.6,1.4c1.2,0,2.3-0.1,3.2-0.3c1-0.2,1.7-0.4,2.3-0.7l0.6,4c-0.3,0.1-0.6,0.3-1.1,0.4c-0.5,0.1-1,0.3-1.6,0.4
		c-0.6,0.1-1.3,0.2-1.9,0.3c-0.7,0.1-1.4,0.1-2.1,0.1c-1.8,0-3.5-0.3-4.8-0.8c-1.4-0.5-2.5-1.3-3.4-2.3c-0.9-1-1.5-2.1-2-3.5
		C180.2,34.8,180,33.4,180,31.8z M194.1,29.6c0-0.7-0.1-1.3-0.3-1.9c-0.2-0.6-0.5-1.1-0.8-1.6c-0.4-0.4-0.8-0.8-1.3-1
		c-0.5-0.3-1.1-0.4-1.9-0.4c-0.8,0-1.4,0.1-2,0.4c-0.6,0.3-1,0.6-1.4,1.1c-0.4,0.5-0.7,1-0.9,1.6c-0.2,0.6-0.4,1.2-0.4,1.8H194.1z"
		/>
</g>
<g>
	<g>
		
			<linearGradient id="SVGID_1_" gradientUnits="userSpaceOnUse" x1="-320.7039" y1="-248.0636" x2="-320.5604" y2="-248.0636" gradientTransform="matrix(360 0 0 -360 115455 -89276)">
			<stop  offset="0" style="stop-color:#EF5037"/>
			<stop  offset="1" style="stop-color:#EC1A75"/>
		</linearGradient>
		<path class="st1" d="M38.2,52.7H16.7C8.3,52.7,1.6,46,1.6,37.7V16.2c0-8.3,6.7-15.1,15.1-15.1h36.6v36.6
			C53.2,46,46.5,52.7,38.2,52.7z"/>
	</g>
	<g class="st2">
		<path class="st3" d="M27.4,14h-8.6c-2.4,0-4.3,1.9-4.3,4.3v17.2c0,2.4,1.9,4.3,4.3,4.3h8.6V14"/>
	</g>
	<g class="st4">
		<path class="st3" d="M40.3,26.9H14.5v8.6c0,2.4,1.9,4.3,4.3,4.3H36c2.4,0,4.3-1.9,4.3-4.3V26.9"/>
	</g>
	<g>
		<path class="st3" d="M36,39.8h-8.6V26.9h12.9v8.6C40.3,37.9,38.4,39.8,36,39.8z"/>
	</g>
</g>
</svg>
